<?xml version="1.0" encoding="UTF-8"?>
<svg width="133px" height="133px" viewBox="0 0 133 133" version="1.1" xmlns="http://www.w3.org/2000/svg" xmlns:xlink="http://www.w3.org/1999/xlink">
    <!-- Generator: Sketch 53.2 (72643) - https://sketchapp.com -->
    <title>download</title>
    <desc>Created with Sketch.</desc>
    <g id="Page-1" stroke="none" stroke-width="1" fill="none" fill-rule="evenodd">
        <g id="Artboard-Copy" transform="translate(-27.000000, -28.000000)" fill-rule="nonzero" stroke="#B69E32" stroke-width="3">
            <g id="download" transform="translate(29.000000, 30.000000)">
                <path d="M128.763585,71.5117675 C128.283973,70.507064 127.164783,69.8514503 125.922808,69.8514503 L92.2332628,69.8514503 L92.2332628,2.68668143 C92.2332628,1.20367962 90.8558206,0 89.1587334,0 L39.9677028,0 C38.2706155,0 36.8931733,1.20367962 36.8931733,2.68668143 L36.8931733,69.8517022 L3.07450185,69.8517022 C1.83252683,69.8517022 0.713336994,70.5073159 0.233725383,71.5067302 C-0.239833438,72.5114337 0.0184189681,73.6667545 0.897802999,74.4352054 L62.2327495,128.21014 C62.8106469,128.715137 63.5917451,129 64.4094483,129 C65.2271516,129 66.0082498,128.715137 66.5861472,128.21543 L128.099507,74.4404946 C128.978891,73.6717919 129.243196,72.5167229 128.763585,71.5117675 Z" id="Path"></path>
            </g>
        </g>
    </g>
</svg>